<svg id="Capa_1" enable-background="new 0 0 512 512" height="512" viewBox="0 0 512 512" width="512" xmlns="http://www.w3.org/2000/svg"><g><g><path d="m349.82 478.054h-323.268c-10.522 0-19.052-8.53-19.052-19.052v-430.419c0-10.523 8.53-19.053 19.052-19.053h323.268c10.522 0 19.052 8.53 19.052 19.052v430.419c.001 10.523-8.529 19.053-19.052 19.053z" fill="#c8effe"/><path d="m349.82 9.53h-39.685c10.522 0 19.052 8.53 19.052 19.052v430.419c0 10.522-8.53 19.052-19.052 19.052h39.685c10.522 0 19.052-8.53 19.052-19.052v-430.418c.001-10.523-8.529-19.053-19.052-19.053z" fill="#b3dafe"/><path d="m328.718 284.183h47.228v132.237h-47.228z" fill="#7ca1b1" transform="matrix(.707 -.707 .707 .707 -144.505 351.738)"/><path d="m322.277 286.851-17.008 17.008 76.498 76.498-16.387 16.387 17.008 17.008 33.395-33.395z" fill="#678d98"/><path d="m389.698 352.364-35.303 35.303c-2.108 2.108-2.108 5.525 0 7.633l98.277 98.277c11.857 11.857 31.08 11.857 42.936 0 11.857-11.857 11.857-31.08 0-42.936l-98.277-98.277c-2.108-2.108-5.525-2.108-7.633 0z" fill="#0078c8"/><circle cx="243.188" cy="241.158" fill="#3c87d0" r="155.931"/><circle cx="243.188" cy="241.158" fill="#b3dafe" r="112.75"/><path d="m316.147 226.869h-12.997c-1.34-4.757-3.233-9.281-5.601-13.503l9.196-9.196c2.35-2.35 2.35-6.16 0-8.51l-15.424-15.424c-2.35-2.35-6.16-2.35-8.51 0l-9.196 9.196c-4.222-2.368-8.746-4.262-13.503-5.601v-12.997c0-3.323-2.694-6.017-6.017-6.017h-21.812c-3.323 0-6.017 2.694-6.017 6.017v12.997c-4.757 1.34-9.281 3.233-13.503 5.601l-9.196-9.196c-2.35-2.35-6.16-2.35-8.51 0l-15.424 15.424c-2.35 2.35-2.35 6.16 0 8.51l9.196 9.196c-2.368 4.222-4.261 8.747-5.601 13.503h-12.998c-3.323 0-6.017 2.694-6.017 6.017v21.812c0 3.323 2.694 6.017 6.017 6.017h12.997c1.34 4.757 3.233 9.281 5.601 13.503l-9.196 9.196c-2.35 2.35-2.35 6.16 0 8.509l15.424 15.424c2.35 2.35 6.16 2.35 8.51 0l9.196-9.196c4.222 2.368 8.746 4.262 13.503 5.602v12.997c0 3.323 2.694 6.017 6.017 6.017h21.812c3.323 0 6.017-2.694 6.017-6.017v-12.997c4.757-1.34 9.281-3.233 13.503-5.602l9.196 9.196c2.35 2.35 6.16 2.35 8.51 0l15.424-15.424c2.35-2.35 2.35-6.16 0-8.509l-9.196-9.196c2.368-4.222 4.261-8.746 5.601-13.503h12.997c3.323 0 6.017-2.694 6.017-6.017v-21.812c.002-3.323-2.693-6.017-6.016-6.017z" fill="#537983"/><circle cx="243.188" cy="243.792" fill="#b3dafe" r="30.366"/><path d="m491.42 450.476-94.821-98.589c-2.034-2.114-5.331-2.114-7.365 0l-12.728 13.233 82.094 85.355c11.44 11.894 11.44 31.178 0 43.073-1.343 1.397-2.787 2.623-4.303 3.691 11.397 8.033 27.027 6.806 37.123-3.691 11.44-11.893 11.44-31.177 0-43.072z" fill="#0268b4"/><path d="m353.448 130.898c-34.056-34.056-79.945-49.059-124.433-45.022 35.059 3.181 69.248 18.183 96.086 45.022 60.895 60.895 60.895 159.624 0 220.519-26.839 26.839-61.027 41.841-96.086 45.022 44.487 4.036 90.377-10.966 124.433-45.022 60.895-60.894 60.895-159.624 0-220.519z" fill="#0078c8"/><path d="m322.915 161.432c-25.223-25.223-59.522-35.968-92.482-32.247 24.485 2.764 48.232 13.509 66.97 32.247 43.961 43.961 43.961 115.491 0 159.452-18.738 18.738-42.485 29.482-66.97 32.247 32.96 3.721 67.259-7.023 92.482-32.247 43.961-43.961 43.961-115.491 0-159.452z" fill="#8ac9fe"/></g><g><path d="m243.188 120.961c-32.154 0-62.352 12.49-85.029 35.168-46.885 46.885-46.885 123.173 0 170.059 23.442 23.443 54.236 35.164 85.029 35.164s61.587-11.721 85.029-35.164c46.885-46.885 46.885-123.173 0-170.059-22.677-22.678-52.875-35.168-85.029-35.168zm74.423 194.62c-41.037 41.037-107.809 41.037-148.846 0-66.178-66.178-18.896-179.62 74.423-179.62 93.348 0 140.585 113.458 74.423 179.62z"/><path d="m500.911 445.337-5.805-5.805c-2.929-2.929-7.678-2.929-10.606 0-2.929 2.929-2.929 7.678 0 10.606l5.804 5.805c4.318 4.318 6.696 10.06 6.696 16.166s-2.378 11.847-6.696 16.165c-4.317 4.318-10.058 6.696-16.165 6.696-6.106 0-11.847-2.378-16.165-6.696-3.308-3.308-91.758-91.758-96.79-96.79l32.33-32.33 66.236 66.236c2.929 2.929 7.678 2.929 10.606 0 2.929-2.929 2.929-7.678 0-10.606l-67.723-67.723c-2.436-2.436-5.675-3.778-9.121-3.778-1.261 0-2.492.184-3.668.531l-11.179-11.179c18.175-26.796 27.953-58.383 27.953-91.477 0-34.459-10.601-67.286-30.247-94.77v-117.805c0-14.641-11.911-26.552-26.552-26.552h-323.267c-14.641-.001-26.552 11.91-26.552 26.552v302.751c0 4.142 3.358 7.5 7.5 7.5s7.5-3.358 7.5-7.5v-302.751c0-6.37 5.182-11.552 11.552-11.552h323.268c6.37 0 11.552 5.182 11.552 11.552v99.695c-30.054-31.462-71.842-50.55-118.184-50.55-.004 0-.008 0-.013 0-89.702 0-163.418 72.614-163.418 163.431 0 89.223 72.085 163.43 163.579 163.43 33.866 0 65.252-10.286 91.322-27.958l11.182 11.182c-.329 1.112-.527 2.505-.527 3.671s0 0 0 0c0 3.446 1.342 6.685 3.778 9.12l12.281 12.281v46.117c0 6.37-5.182 11.552-11.552 11.552h-323.268c-6.37 0-11.552-5.182-11.552-11.552v-92.668c0-4.142-3.358-7.5-7.5-7.5s-7.5 3.358-7.5 7.5v92.668c0 14.641 11.911 26.552 26.552 26.552h323.268c14.641 0 26.552-11.911 26.552-26.552v-31.117l70.996 70.995c7.151 7.151 16.658 11.089 26.771 11.089s19.621-3.938 26.771-11.089c7.152-7.15 11.09-16.657 11.09-26.771 0-10.112-3.938-19.62-11.089-26.772zm-122.774-92.019-22.789 22.788-8.548-8.549c8.016-6.587 15.742-14.214 22.793-22.783zm-46.235 6.845c-56.005 41.805-135.035 38.952-187.889-8.571-101.631-91.495-35.773-258.795 99.175-258.795 81.829 0 148.431 66.135 148.431 148.361 0 47.641-22.369 91.082-59.717 119.005z"/><path d="m243.188 205.927c-20.879 0-37.866 16.986-37.866 37.866s16.986 37.866 37.866 37.866 37.866-16.986 37.866-37.866-16.986-37.866-37.866-37.866zm0 60.731c-12.608 0-22.866-10.257-22.866-22.866s10.257-22.866 22.866-22.866 22.866 10.257 22.866 22.866-10.257 22.866-22.866 22.866z"/><path d="m308.58 219.369c-.574-1.535-1.203-3.05-1.885-4.542l5.353-5.354c5.271-5.271 5.271-13.846 0-19.116l-15.423-15.423c-5.283-5.283-13.834-5.284-19.116 0l-5.354 5.353c-1.492-.682-3.008-1.311-4.543-1.885v-7.568c0-7.453-6.064-13.517-13.517-13.517h-21.813c-7.453 0-13.517 6.064-13.517 13.517v7.568c-1.535.574-3.051 1.203-4.543 1.885l-5.353-5.353c-5.282-5.284-13.833-5.284-19.117 0l-15.423 15.423c-5.271 5.271-5.271 13.846 0 19.116l5.353 5.354c-.682 1.492-1.311 3.008-1.885 4.542h-7.568c-7.453 0-13.517 6.064-13.517 13.518v21.813c0 7.453 6.064 13.517 13.517 13.517h7.568c.574 1.535 1.203 3.051 1.885 4.543l-5.353 5.353c-5.283 5.281-5.285 13.834 0 19.116l15.423 15.424c5.283 5.283 13.834 5.284 19.116 0l5.354-5.353c1.492.682 3.008 1.311 4.543 1.885v7.567c0 7.453 6.064 13.517 13.517 13.517h21.813c7.453 0 13.517-6.064 13.517-13.517v-7.567c1.535-.574 3.051-1.203 4.543-1.885l5.353 5.353c5.282 5.284 13.833 5.284 19.117 0l15.423-15.423c5.283-5.281 5.285-13.834 0-19.116l-5.353-5.354c.682-1.492 1.311-3.008 1.885-4.543h7.568c7.453 0 13.517-6.064 13.517-13.517v-21.813c0-7.454-6.064-13.518-13.517-13.518zm6.085 33.847h-11.515c-3.359 0-6.309 2.233-7.219 5.467-1.16 4.119-2.816 8.112-4.923 11.868-1.644 2.93-1.138 6.596 1.238 8.972l8.147 8.147-13.326 13.327-8.148-8.148c-2.376-2.376-6.043-2.882-8.973-1.238-3.755 2.107-7.748 3.763-11.867 4.923-3.233.911-5.467 3.86-5.467 7.219v11.514h-18.847v-11.514c0-3.359-2.233-6.309-5.467-7.219-4.119-1.16-8.112-2.816-11.867-4.923-2.931-1.644-6.598-1.138-8.973 1.238l-8.148 8.148-13.326-13.327 8.147-8.147c2.376-2.376 2.882-6.042 1.238-8.972-2.107-3.756-3.763-7.749-4.923-11.868-.911-3.233-3.86-5.467-7.219-5.467h-11.515v-18.847h11.515c3.359 0 6.308-2.233 7.219-5.466 1.16-4.12 2.817-8.112 4.923-11.867 1.644-2.931 1.138-6.597-1.238-8.973l-8.147-8.148 13.327-13.327 8.148 8.147c2.376 2.376 6.041 2.881 8.972 1.238 3.756-2.107 7.749-3.763 11.868-4.923 3.233-.911 5.467-3.86 5.467-7.219v-11.515h18.847v11.515c0 3.359 2.233 6.309 5.467 7.219 4.119 1.16 8.112 2.816 11.868 4.923 2.931 1.643 6.597 1.138 8.972-1.238l8.148-8.147 13.327 13.327-8.147 8.148c-2.376 2.376-2.882 6.042-1.238 8.973 2.106 3.755 3.763 7.748 4.923 11.867.911 3.233 3.86 5.466 7.219 5.466h11.515v18.847z"/></g></g></svg>