<svg id="Layer_1" enable-background="new 0 0 512 512" height="512" viewBox="0 0 512 512" width="512" xmlns="http://www.w3.org/2000/svg"><g><path d="m461.901 255.996s-60.17 72.64-143.24 100.55c-19.76 6.64-40.81 10.75-62.66 10.75-113.72 0-205.9-111.3-205.9-111.3s92.18-111.29 205.9-111.29c21.86 0 42.92 4.11 62.68 10.76 83.06 27.91 143.22 100.53 143.22 100.53z" fill="#e5f5f9"/><path d="m461.901 255.996s-60.17 72.64-143.24 100.55c59.35-41.01 98.98-100.55 98.98-100.55s-39.62-59.53-98.96-100.53c83.06 27.91 143.22 100.53 143.22 100.53z" fill="#bfd5dd"/><path d="m367.301 255.996c0 61.47-49.83 111.3-111.3 111.3-5.92 0-11.74-.46-17.41-1.36-53.2-8.35-93.89-54.39-93.89-109.94 0-55.54 40.69-101.58 93.89-109.93 5.67-.9 11.49-1.36 17.41-1.36 61.47 0 111.3 49.83 111.3 111.29z" fill="#5cd5ff"/><path d="m367.301 255.996c0 61.47-49.83 111.3-111.3 111.3-5.92 0-11.74-.46-17.41-1.36 53.2-8.35 93.89-54.39 93.89-109.94 0-55.54-40.69-101.58-93.89-109.93 5.67-.9 11.49-1.36 17.41-1.36 61.47 0 111.3 49.83 111.3 111.29z" fill="#5ab5ff"/><path d="m300.261 255.996c0 24.45-19.81 44.27-44.26 44.27-5 0-9.8-.83-14.29-2.35-17.44-5.95-29.98-22.47-29.98-41.92 0-19.44 12.54-35.96 29.98-41.9 4.49-1.53 9.29-2.36 14.29-2.36 24.45 0 44.26 19.82 44.26 44.26z" fill="#51697a"/><path d="m300.261 255.996c0 24.45-19.81 44.27-44.26 44.27-5 0-9.8-.83-14.29-2.35 17.43-5.95 29.96-22.46 29.96-41.91s-12.53-35.96-29.96-41.91c4.49-1.53 9.29-2.36 14.29-2.36 24.45 0 44.26 19.82 44.26 44.26z" fill="#354c5b"/><g><g><g><g fill="#354c5b"><path d="m125.823 22.492c0 8.28-6.71 14.99-14.99 14.99h-57.2c-8.9 0-16.14 7.24-16.14 16.14v57.19c0 8.28-6.72 14.99-15 14.99s-14.99-6.71-14.99-14.99v-57.19c0-25.44 20.69-46.13 46.13-46.13h57.2c8.28 0 14.99 6.72 14.99 15z"/><path d="m504.503 53.622v57.19c0 8.28-6.71 14.99-14.99 14.99s-15-6.71-15-14.99v-57.19c0-8.9-7.24-16.14-16.14-16.14h-57.2c-8.28 0-14.99-6.71-14.99-14.99s6.71-15 14.99-15h57.2c25.44 0 46.13 20.69 46.13 46.13z"/><path d="m125.823 489.502c0 8.28-6.71 14.99-14.99 14.99h-57.2c-25.44 0-46.13-20.69-46.13-46.12v-57.19c0-8.28 6.71-14.99 14.99-14.99s15 6.71 15 14.99v57.19c0 8.9 7.24 16.14 16.14 16.14h57.2c8.28 0 14.99 6.71 14.99 14.99z"/><path d="m504.503 401.182v57.19c0 25.43-20.69 46.12-46.13 46.12h-57.2c-8.28 0-14.99-6.71-14.99-14.99s6.71-14.99 14.99-14.99h57.2c8.9 0 16.14-7.24 16.14-16.14v-57.19c0-8.28 6.72-14.99 15-14.99s14.99 6.71 14.99 14.99z"/></g><g fill="#51697a"><path d="m125.823 489.502h-75.43c-15.41 0-27.9-12.49-27.9-27.9v-75.41c8.28 0 15 6.71 15 14.99v57.19c0 8.9 7.24 16.14 16.14 16.14h57.2c8.28 0 14.99 6.71 14.99 14.99z"/><path d="m50.393 22.492h75.43c0 8.28-6.71 14.99-14.99 14.99h-57.2c-8.9 0-16.14 7.24-16.14 16.14v57.19c0 8.28-6.72 14.99-15 14.99v-75.41c0-15.41 12.49-27.9 27.9-27.9z"/><path d="m489.513 50.392v75.41c-8.28 0-15-6.71-15-14.99v-57.19c0-8.9-7.24-16.14-16.14-16.14h-57.2c-8.28 0-14.99-6.71-14.99-14.99h75.43c15.41 0 27.9 12.49 27.9 27.9z"/><path d="m489.513 386.192v75.41c0 15.41-12.49 27.9-27.9 27.9h-75.43c0-8.28 6.71-14.99 14.99-14.99h57.2c8.9 0 16.14-7.24 16.14-16.14v-57.19c0-8.28 6.72-14.99 15-14.99z"/></g></g></g><circle cx="285.011" cy="221.532" fill="#fff" r="22.574"/></g></g><g><path d="m22.494 133.308c12.403 0 22.494-10.09 22.494-22.492v-57.194c0-4.763 3.876-8.638 8.64-8.638h57.201c12.403 0 22.494-10.09 22.494-22.492s-10.091-22.492-22.494-22.492h-57.201c-29.57 0-53.628 24.055-53.628 53.622v57.193c0 12.403 10.091 22.493 22.494 22.493zm-7.494-79.686c0-21.296 17.329-38.622 38.628-38.622h57.201c4.132 0 7.494 3.361 7.494 7.492s-3.362 7.492-7.494 7.492h-57.201c-13.035 0-23.64 10.604-23.64 23.638v57.193c0 4.131-3.362 7.492-7.494 7.492s-7.494-3.361-7.494-7.492z"/><path d="m458.373 0h-57.201c-12.403 0-22.494 10.09-22.494 22.492s10.091 22.492 22.494 22.492h57.201c4.764 0 8.64 3.875 8.64 8.638v57.193c0 12.402 10.091 22.492 22.494 22.492s22.493-10.089 22.493-22.492v-57.193c0-29.567-24.057-53.622-53.627-53.622zm38.627 110.815c0 4.131-3.362 7.492-7.494 7.492s-7.494-3.361-7.494-7.492v-57.193c0-13.034-10.605-23.638-23.64-23.638h-57.201c-4.132 0-7.494-3.361-7.494-7.492s3.363-7.492 7.494-7.492h57.201c21.3 0 38.628 17.326 38.628 38.622z"/><path d="m110.829 467.017h-57.201c-4.764 0-8.64-3.875-8.64-8.639v-57.193c0-12.402-10.091-22.492-22.494-22.492-12.403-.001-22.494 10.089-22.494 22.492v57.193c0 29.567 24.058 53.622 53.628 53.622h57.201c12.403 0 22.494-10.09 22.494-22.492s-10.091-22.491-22.494-22.491zm0 29.983h-57.201c-21.299 0-38.628-17.326-38.628-38.622v-57.193c0-4.131 3.362-7.492 7.494-7.492s7.494 3.361 7.494 7.492v57.193c0 13.034 10.605 23.639 23.64 23.639h57.201c4.132 0 7.494 3.36 7.494 7.491s-3.362 7.492-7.494 7.492z"/><path d="m489.506 378.692c-12.403 0-22.494 10.09-22.494 22.492v57.193c0 4.764-3.876 8.639-8.64 8.639h-57.201c-12.403 0-22.494 10.09-22.494 22.491 0 12.402 10.091 22.492 22.494 22.492h57.201c29.57 0 53.627-24.055 53.627-53.622v-57.193c.001-12.402-10.09-22.492-22.493-22.492zm7.494 79.686c0 21.296-17.328 38.622-38.627 38.622h-57.201c-4.132 0-7.494-3.361-7.494-7.492s3.362-7.491 7.494-7.491h57.201c13.035 0 23.64-10.604 23.64-23.639v-57.193c0-4.131 3.362-7.492 7.494-7.492s7.494 3.361 7.494 7.492v57.193z"/><path d="m467.678 260.784c2.299-2.775 2.299-6.793 0-9.568-.575-.694-14.355-17.241-37.891-37.729-3.124-2.719-7.862-2.393-10.581.732-2.72 3.124-2.392 7.862.732 10.582 15.228 13.256 26.334 24.949 31.98 31.191-13.094 14.426-55.587 58.074-111.934 83.95 21.499-21.51 34.813-51.2 34.813-83.942 0-32.736-13.31-62.422-34.802-83.931 21.404 9.791 40.241 21.846 55.267 32.924 3.333 2.457 8.029 1.749 10.487-1.587 2.458-3.334 1.748-8.029-1.587-10.487-50.15-36.971-100-55.717-148.164-55.717-60.801 0-115.174 31.073-150.082 57.14-37.546 28.038-60.631 55.71-61.596 56.874-2.299 2.775-2.299 6.793 0 9.568.964 1.164 24.049 28.836 61.596 56.874 34.907 26.066 89.28 57.14 150.082 57.14s115.175-31.073 150.082-57.14c37.548-28.038 60.633-55.71 61.598-56.874zm-407.599-4.784c8.189-9.047 27.882-29.568 55.104-49.855 15.412-11.485 34.791-24 56.828-34.082-21.496 21.509-34.808 51.198-34.808 83.937 0 4.143 3.358 7.5 7.5 7.5s7.5-3.357 7.5-7.5c0-57.234 46.563-103.798 103.798-103.798s103.797 46.564 103.797 103.798c0 57.004-46.19 103.422-103.107 103.795-.23.001-.461.002-.691.002-22.504 0-43.911-7.079-61.907-20.474-17.405-12.953-30.573-31.416-37.079-51.986-1.249-3.949-5.461-6.136-9.413-4.89-3.949 1.25-6.138 5.464-4.889 9.413 5.776 18.264 15.711 34.59 29.096 47.983-21.953-10.065-41.261-22.539-56.626-33.989-27.223-20.287-46.916-40.809-55.103-49.854z"/><path d="m256 307.765c28.543 0 51.764-23.222 51.764-51.765 0-4.44-.558-8.81-1.661-13.051 5.542-5.458 8.982-13.043 8.982-21.417 0-16.582-13.491-30.073-30.074-30.073-10.227 0-19.279 5.132-24.714 12.955-1.428-.118-2.863-.177-4.297-.177-28.542 0-51.764 23.221-51.764 51.764s23.222 51.764 51.764 51.764zm29.011-101.307c8.312 0 15.074 6.762 15.074 15.073s-6.762 15.074-15.074 15.074-15.074-6.763-15.074-15.074 6.762-15.073 15.074-15.073zm-29.988 12.791c-.057.753-.086 1.514-.086 2.282 0 16.583 13.491 30.074 30.074 30.074 2.543 0 5.013-.318 7.374-.915.252 1.748.379 3.52.379 5.309 0 20.272-16.492 36.765-36.764 36.765-20.271 0-36.764-16.492-36.764-36.765 0-19.944 15.965-36.23 35.787-36.75z"/></g></svg>