<svg id="Capa_1" enable-background="new 0 0 512 512" height="40" viewBox="0 0 512 512" width="40" xmlns="http://www.w3.org/2000/svg"><g><g><path d="m376 220-12.48-120c-23.15-52.98-76.01-90-137.52-90-72.57 0-133.1 51.53-147 120l.01 60c7.42 36.49 28.13 68.13 56.99 89.51.02 82.68.02 222.49.02 222.49h149.98v-118.5l90 22.5v-96l60-30z" fill="#fce8d0"/><path d="m442 406 60 96h-120z" fill="#ff5d7d"/><circle cx="472" cy="40" fill="#ffc144" r="30"/><path d="m436 130v60c0 16.57-13.43 30-30 30-11.007 0-80.336 0-90 0-16.57 0-30-13.43-30-30v-60c0-16.57 13.43-30 30-30h90c16.57 0 30 13.43 30 30z" fill="#99ebfa"/><path d="m286 130v60h-206.99c-1.98-9.69-3.01-19.73-3.01-30s1.03-20.31 3-30z" fill="#6d91ac"/><path d="m10 316h60v90h-60z" fill="#99ebfa"/></g><g><path d="m472 0c-22.056 0-40 17.944-40 40s17.944 40 40 40 40-17.944 40-40-17.944-40-40-40zm0 60c-11.028 0-20-8.972-20-20s8.972-20 20-20 20 8.972 20 20-8.972 20-20 20z"/><path d="m10 416h60c5.523 0 10-4.477 10-10v-90c0-5.523-4.477-10-10-10h-60c-5.523 0-10 4.477-10 10v90c0 5.523 4.477 10 10 10zm10-90h40v70h-40z"/><path d="m433.52 400.7-60 96c-1.926 3.083-2.028 6.968-.266 10.147 1.762 3.18 5.111 5.152 8.746 5.152h120c3.635 0 6.984-1.973 8.746-5.152 1.763-3.18 1.66-7.065-.266-10.147l-60-96c-1.828-2.924-5.032-4.7-8.48-4.7s-6.652 1.776-8.48 4.7zm50.437 91.3h-83.914l41.957-67.132z"/><circle cx="216.001" cy="502" r="10"/><path d="m66 160c0 49.388 22.505 94.762 60.001 124.446.019 83.181.019 217.554.019 217.554 0 5.523 4.477 10 10 10h34.981c5.523 0 10-4.477 10-10s-4.477-10-10-10h-25.011c0-33.429-.003-143.089-.02-212.493-.001-3.167-1.472-6.147-4.017-8.033-24.132-17.877-41.628-42.936-50.138-71.475h185.452c4.452 17.233 20.13 30 38.734 30h55.857l47.261 47.26-47.59 23.795c-3.389 1.696-5.529 5.158-5.529 8.946v83.192l-107.574-26.894c-5.354-1.334-10.787 1.917-12.127 7.276-1.34 5.358 1.918 10.787 7.275 12.127l22.426 5.607v100.692h-14.999c-5.522 0-10 4.477-10 10s4.478 10 10 10h24.999c5.522 0 10-4.477 10-10v-105.692l77.574 19.394c6.304 1.574 12.426-3.195 12.426-9.702v-89.82l54.472-27.236c6.097-3.047 7.425-11.189 2.6-16.016l-42.929-42.928h5.857c22.056 0 40-17.944 40-40v-60c0-22.056-17.944-40-40-40h-36.097c-26.718-54.886-82.487-90-143.903-90-88.325 0-160 71.636-160 160zm210-20v40h-188.571c-.943-6.584-1.429-13.28-1.429-20 0-6.711.485-13.407 1.426-20zm150-10v60c0 11.028-8.972 20-20 20h-90c-11.028 0-20-8.972-20-20v-60c0-11.028 8.972-20 20-20h90c11.028 0 20 8.972 20 20zm-200-110c50.401 0 96.462 27.023 121.279 70h-31.279c-18.604 0-34.282 12.767-38.734 30h-185.471c17.449-58.623 72.038-100 134.205-100z"/></g></g></svg>