<svg id="_x33_0" enable-background="new 0 0 64 64" height="40" viewBox="0 0 64 64" width="40" xmlns="http://www.w3.org/2000/svg"><g><g><g><circle cx="4" cy="12" fill="#fcd770" r="2"/></g><g><circle cx="36" cy="8" fill="#fcd770" r="2"/></g><g><circle cx="18" cy="4" fill="#fcd770" r="2"/></g><g><path d="m34 38h-6.86-18.14c-.04 0-.09 0-.13-.01-3.81-.06-6.87-3.16-6.87-6.99v24c0 3.87 3.13 7 7 7h27v-24z" fill="#e6e9ed"/></g><g><path d="m18 62v-10h4 6 4.17.01c.14.43.39.81.7 1.12.54.54 1.29.88 2.12.88h1v8z" fill="#fcd770"/></g><g><path d="m22 42h6v10h-6z" fill="#5cd6b3"/></g><g><circle cx="18" cy="32" fill="#f0d0b4" r="4"/></g><g><path d="m6 34 4.49.75c.07.21.16.42.25.62l-1.87 2.62c-3.81-.06-6.87-3.16-6.87-6.99 0-1.94.78-3.68 2.05-4.95s3.01-2.05 4.95-2.05h.03l-.93.93 2.64 3.7c-.09.2-.18.41-.25.62l-4.49.75z" fill="#f0d0b4"/></g><g><path d="m34 34.57v3.43h-6.86l-1.88-2.63c.09-.2.18-.41.25-.62l4.49-.75v-4l-4.49-.75c-.07-.21-.16-.42-.25-.62l2.64-3.7-.93-.93h7.03z" fill="#f0d0b4"/></g><g><path d="m27.14 38h-18.14c-.04 0-.09 0-.13-.01l1.87-2.62c-.09-.2-.18-.41-.25-.62l-4.49-.75v-4l4.49-.75c.07-.21.16-.42.25-.62l-2.64-3.7.93-.93 1.9-1.9 3.7 2.64c.2-.09.41-.18.62-.25l.75-4.49h4l.75 4.49c.21.07.42.16.62.25l3.7-2.64 1.9 1.9.93.93-2.64 3.7c.09.2.18.41.25.62l4.49.75v4l-4.49.75c-.07.21-.16.42-.25.62zm-9.14-2c2.21 0 4-1.79 4-4s-1.79-4-4-4-4 1.79-4 4 1.79 4 4 4z" fill="#fcd770"/></g><g><path d="m58 42v20h-15v-8h5.32c2.91 0 5.62-1.5 7.16-3.97.82-1.31 1.46-2.55 1.88-3.83.42-1.3.64-2.64.64-4.2z" fill="#ff826e"/></g><g><path d="m58 41v1c0 1.56-.22 2.9-.64 4.2-.42 1.28-1.06 2.52-1.88 3.83-1.54 2.47-4.25 3.97-7.16 3.97h-5.32-5v-6h5v-3.65c0-.4.02-.8.07-1.19.11-.98.36-1.93.73-2.83.37-.91.88-1.76 1.49-2.53.25-.31.51-.6.79-.88.62-.62 1.32-1.17 2.08-1.61l1.84 3.69 5.89-4.92c1.36 1.95 2.11 4.66 2.11 6.92z" fill="#ff826e"/></g><g><path d="m34 34.57 11.29 3.23c-.61.77-1.12 1.62-1.49 2.53-.37.9-.62 1.85-.73 2.83l-7.07-2.02v-3.14h-2z" fill="#ff826e"/></g><g><path d="m55.89 34.08-5.89 4.92-1.84-3.69c.27-.16.55-.31.84-.44.52-.26 1.06-.46 1.62-.62l4.38-1.25c.32.32.62.68.89 1.08z" fill="#fc6e51"/></g><g><path d="m38 48v6h-2-1c-.83 0-1.58-.34-2.12-.88-.31-.31-.56-.69-.7-1.12-.12-.31-.18-.65-.18-1 0-1.66 1.34-3 3-3h1z" fill="#f0d0b4"/></g><g><path d="m62 17v1.35c0 4.14-2.13 7.98-5.64 10.18l-1.84 1.14-.52-3.67 1.29-1.29c.46-.46.71-1.07.71-1.71 0-.55-.22-1.05-.59-1.41-.36-.37-.86-.59-1.41-.59v-4z" fill="#656d78"/></g><g><path d="m62 16.11v.89h-8v-3c0-.55-.45-1-1-1h-8.49c1.47-4.15 5.89-6.9 10.73-5.73 4.02.97 6.76 4.71 6.76 8.84z" fill="#ffeaa7"/></g><g><path d="m54 14v3h-10-3c-.55 0-1-.45-1-1v-2c0-.55.45-1 1-1h3.51 8.49c.55 0 1 .45 1 1z" fill="#fcd770"/></g><g><path d="m54.52 29.67.48 3.33-4.38 1.25c-.56.16-1.1.36-1.62.62v-.01-5.86h-1c-1.1 0-2.1-.45-2.83-1.17-.72-.73-1.17-1.73-1.17-2.83h-2c0-5 2-8 2-8h10v4c.55 0 1.05.22 1.41.59.37.36.59.86.59 1.41 0 .64-.25 1.25-.71 1.71l-1.29 1.29z" fill="#f0d0b4"/></g></g><g><circle cx="46" cy="21" r="1"/><path d="m55.477 6.299c-4.834-1.169-9.703 1.268-11.636 5.701h-2.841c-1.103 0-2 .897-2 2v2c0 1.103.897 2 2 2h1.37c-.619 1.446-1.37 3.846-1.37 7v1h2.101c.465 2.279 2.484 4 4.899 4v4.27c-.961.524-1.854 1.17-2.631 1.947-.143.143-.271.298-.406.447l-9.963-2.847v-10.817h-7.616l-2.206-2.206-3.603 2.57-.728-4.364h-5.693l-.729 4.365-3.603-2.57-2.226 2.226c-4.223.212-7.596 3.705-7.596 7.979v24c0 4.411 3.589 8 8 8h28v-8h5v8h17v-21-1c0-2.592-.955-6.136-3.051-8.427l-.343-2.397 1.284-.802c3.826-2.393 6.11-6.514 6.11-11.025v-2.235c0-4.709-3.094-8.746-7.523-9.815zm-.469 1.944c3.436.83 5.936 4.081 5.987 7.757h-5.995v-2c0-1.103-.897-2-2-2h-6.93c1.752-3.034 5.352-4.622 8.938-3.757zm-14.008 5.757h12v2h-12zm9 16h2v-2h-4c-1.654 0-3-1.346-3-3v-1h-1.971c.174-3.015 1.098-5.127 1.552-6h8.419v4h1c.552 0 1 .449 1 1 0 .378-.146.733-.414 1l-1.646 1.646.947 6.632-3.545 1.013c-.117.033-.226.085-.342.122zm.891 5.214 3.181-.909-3.741 3.118-.836-1.672c.451-.211.914-.399 1.396-.537zm-7.208 3.164c-.664 1.087-1.143 2.27-1.413 3.517l-5.27-1.506v-3.389h-2v-1.103zm-10.683 12.622c0-1.103.897-2 2-2h2v4h-2c-1.103 0-2-.897-2-2zm4-4v-4.531l5.022 1.435c-.006.148-.022.296-.022.446v2.65zm-7.921-22h3.921v12h-5.349l-1.016-1.424 4.365-.729v-5.693l-4.365-.729zm-18.041-1.594 3.479 2.482.523-.236c.17-.077.347-.154.524-.213l.571-.19.712-4.249h2.307l.71 4.249.571.19c.178.059.354.136.524.213l.523.236 3.479-2.482 1.633 1.633-2.482 3.478.235.523c.076.169.154.346.213.524l.189.573 4.25.71v2.307l-4.25.71-.189.573c-.059.178-.137.355-.213.524l-.235.523 1.083 1.516h-7.195-7.195l1.082-1.516-.235-.523c-.076-.169-.154-.346-.213-.524l-.189-.573-4.25-.711v-2.307l4.25-.71.189-.573c.059-.178.137-.355.213-.524l.235-.523-2.482-3.478zm-3.899 1.899 2.227 3.119-4.366.729v5.693l4.365.729-.993 1.391c-3.014-.314-5.372-2.869-5.372-5.966 0-2.653 1.732-4.905 4.139-5.695zm-4.139 29.695v-18.726c1.467 1.667 3.61 2.726 6 2.726h26v8c-2.206 0-4 1.794-4 4h-2v-10h-8v10h-4v10h-8c-3.309 0-6-2.691-6-6zm24-4h-4v-8h4zm8 10h-16v-8h12.556c.694 1.19 1.97 2 3.444 2zm22 0h-13v-6h4.323c3.275 0 6.268-1.658 8.003-4.436.243-.389.467-.769.674-1.142zm0-19c0 2.672-.664 4.776-2.369 7.504-1.368 2.189-3.727 3.496-6.308 3.496h-9.323v-4h9.382c.764 0 1.449-.424 1.789-1.105l2.724-5.447-1.789-.895-2.724 5.447h-4.382v-2.65c0-2.538.988-4.924 2.783-6.719.308-.309.641-.59.988-.852l1.899 3.798 5.974-4.979c.836 1.579 1.356 3.56 1.356 5.402zm-1.17-14.323-.533.333-.237-1.656.94-.939c.645-.645 1-1.502 1-2.415 0-1.304-.836-2.416-2-2.829v-2.171h6v.349c0 3.817-1.933 7.304-5.17 9.328z"/><path d="m29 57h2v2h-2z"/><path d="m25 57h2v2h-2z"/><path d="m21 57h2v2h-2z"/><path d="m9 47h10v2h-10z"/><path d="m9 43h10v2h-10z"/><path d="m9 51h6v2h-6z"/><path d="m9 55h6v2h-6z"/><path d="m17 6.816v10.184h2v-10.184c1.161-.414 2-1.514 2-2.816 0-1.654-1.346-3-3-3s-3 1.346-3 3c0 1.302.839 2.402 2 2.816zm1-3.816c.552 0 1 .449 1 1s-.448 1-1 1-1-.449-1-1 .448-1 1-1z"/><path d="m4 15c1.302 0 2.402-.839 2.816-2h6.184v4h2v-6h-8.184c-.414-1.161-1.514-2-2.816-2-1.654 0-3 1.346-3 3s1.346 3 3 3zm0-4c.552 0 1 .449 1 1s-.448 1-1 1-1-.449-1-1 .448-1 1-1z"/><path d="m21 7v10h2v-8h2v6h6v-2h-4v-4h6.184c.414 1.161 1.514 2 2.816 2 1.654 0 3-1.346 3-3s-1.346-3-3-3c-1.302 0-2.402.839-2.816 2h-6.184v-2h-2v2zm15 0c.552 0 1 .449 1 1s-.448 1-1 1-1-.449-1-1 .448-1 1-1z"/><path d="m15 7h-4v-2h-2v4h6z"/><path d="m9 1h2v2h-2z"/><path d="m23 32c0-2.757-2.243-5-5-5s-5 2.243-5 5 2.243 5 5 5 5-2.243 5-5zm-5 3c-1.654 0-3-1.346-3-3s1.346-3 3-3 3 1.346 3 3-1.346 3-3 3z"/><path d="m25 1h2v2h-2z"/><path d="m33 13h2v2h-2z"/></g></g></svg>