<svg id="Layer_5" enable-background="new 0 0 64 64" height="40" viewBox="0 0 64 64" width="40" xmlns="http://www.w3.org/2000/svg"><path d="m60 46h-56c-1.105 0-2-.895-2-2v-34h60v34c0 1.105-.895 2-2 2z" fill="#e6e9ed"/><path d="m47 47 10.6 10.6c-2.71 2.72-6.46 4.4-10.6 4.4s-7.89-1.68-10.6-4.4z" fill="#4fc1e9"/><path d="m47 32v15l-10.6 10.6c-2.72-2.71-4.4-6.46-4.4-10.6 0-.34.01-.67.04-1 .51-7.82 7.02-14 14.96-14z" fill="#fcd770"/><path d="m47 32c8.28 0 15 6.72 15 15 0 4.14-1.68 7.89-4.4 10.6l-10.6-10.6z" fill="#ff826e"/><path d="m24 32v8c0 1.1-.9 2-2 2h-14c-1.1 0-2-.9-2-2v-8c0-1.1.9-2 2-2h14c1.1 0 2 .9 2 2z" fill="#ff826e"/><path d="m24 16v8c0 1.1-.9 2-2 2h-14c-1.1 0-2-.9-2-2v-8c0-1.1.9-2 2-2h14c1.1 0 2 .9 2 2z" fill="#fcd770"/><path d="m2 10v-6c0-1.1.9-2 2-2h56c1.1 0 2 .9 2 2v6z" fill="#5cd6b3"/><path d="m60 1h-56c-1.654 0-3 1.346-3 3v40c0 1.654 1.346 3 3 3h27c0 8.822 7.178 16 16 16s16-7.178 16-16v-43c0-1.654-1.346-3-3-3zm-56 2h56c.551 0 1 .449 1 1v5h-58v-5c0-.551.449-1 1-1zm42 43.586-9.568 9.568c-2.132-2.457-3.432-5.653-3.432-9.154 0-7.382 5.747-13.433 13-13.949zm-8.154 10.982 9.154-9.154 9.154 9.154c-2.457 2.132-5.653 3.432-9.154 3.432s-6.697-1.3-9.154-3.432zm19.722-1.414-9.568-9.568v-13.535c7.253.516 13 6.567 13 13.949 0 3.501-1.3 6.697-3.432 9.154zm-10.568-25.154c-8.144 0-14.872 6.12-15.861 14h-27.139c-.551 0-1-.449-1-1v-33h58v28.271c-2.731-4.926-7.98-8.271-14-8.271z"/><path d="m37 47c0-4.456 2.99-8.413 7.272-9.624l-.544-1.925c-5.139 1.454-8.728 6.203-8.728 11.549z"/><path d="m35.198 49.181c.137.746.346 1.48.621 2.183l1.863-.728c-.229-.585-.402-1.197-.517-1.818z"/><path d="m56.585 44.139 1.917-.57c-.207-.696-.48-1.377-.811-2.024l-1.781.91c.276.539.503 1.106.675 1.684z"/><path d="m57 47c0 .248-.009.493-.027.736l1.995.146c.021-.291.032-.586.032-.882 0-.433-.023-.868-.069-1.295l-1.988.214c.037.355.057.716.057 1.081z"/><path d="m56.062 51.234 1.812.848c.308-.659.557-1.349.74-2.051l-1.936-.503c-.152.584-.359 1.158-.616 1.706z"/><path d="m13 5h2v2h-2z"/><path d="m9 5h2v2h-2z"/><path d="m5 5h2v2h-2z"/><path d="m22 13h-14c-1.654 0-3 1.346-3 3v8c0 1.654 1.346 3 3 3h14c1.654 0 3-1.346 3-3v-8c0-1.654-1.346-3-3-3zm1 11c0 .551-.449 1-1 1h-14c-.551 0-1-.449-1-1v-8c0-.551.449-1 1-1h14c.551 0 1 .449 1 1z"/><path d="m22 29h-14c-1.654 0-3 1.346-3 3v8c0 1.654 1.346 3 3 3h14c1.654 0 3-1.346 3-3v-8c0-1.654-1.346-3-3-3zm1 11c0 .551-.449 1-1 1h-14c-.551 0-1-.449-1-1v-8c0-.551.449-1 1-1h14c.551 0 1 .449 1 1z"/><path d="m16 20.586-3-3-4.707 4.707 1.414 1.414 3.293-3.293 3 3 5.707-5.707-1.414-1.414z"/><path d="m19 33h-2v4h-2v-2h-2v2h-2v-4h-2v6h12v-2h-2z"/><path d="m29 13h2v2h-2z"/><path d="m33 13h26v2h-26z"/><path d="m29 17h30v2h-30z"/><path d="m29 21h6v2h-6z"/><path d="m37 21h22v2h-22z"/><path d="m29 25h18v2h-18z"/><path d="m49 25h2v2h-2z"/><path d="m57 25h2v2h-2z"/><path d="m53 25h2v2h-2z"/></svg>