<svg id="Capa_1" enable-background="new 0 0 512 512" height="40" viewBox="0 0 512 512" width="40" xmlns="http://www.w3.org/2000/svg"><g><g><path clip-rule="evenodd" d="m445.892 442.063c1.903-1.193 4.119-1.903 6.505-1.903h19.941c0-163.849 0-204.47 0-368.347l-32.184-32.156c-163.844 0-204.464 0-368.337 0l-9.203 16.731c-.653 1.193-.028 6.676 8.607 7.045 215.372 77.464 307.946 188.505 374.671 378.63z" fill="#f9f3f1" fill-rule="evenodd"/></g><g><path clip-rule="evenodd" d="m315.283 175.269c0-2.613 1.165-5 2.983-6.619-64.168-61.472-148.42-96.184-247.045-105.218l-31.559 8.38v329.629 70.903h78.741 321.752l5.738-30.281c-13.862-94.707-44.569-171.234-89.194-230.149-1.165.568-2.5.909-3.892.909h-28.718c-4.857 0-8.806-3.977-8.806-8.834z" fill="#8ac9fe" fill-rule="evenodd"/></g><g><path clip-rule="evenodd" d="m59.603 223.844h-19.941-19.941c-6.704 0-12.214 5.482-12.214 12.215v39.883c0 6.704 5.511 12.215 12.214 12.215h19.941 19.941c6.732 0 12.214-5.511 12.214-12.215v-39.883c0-6.733-5.482-12.215-12.214-12.215z" fill="#375e7d" fill-rule="evenodd"/></g><g><path clip-rule="evenodd" d="m39.662 440.159h19.941c6.732 0 12.214 5.511 12.214 12.243v19.941h46.585l33.121-33.207-28.463-47.666-46.472-27.071-36.927 37.042v38.718z" fill="#ce775f" fill-rule="evenodd"/></g><g><path clip-rule="evenodd" d="m112.892 351.645 10.169 29.344 41.103 21.816 90.331-42.525 22.184-121.608-121.491 22.526z" fill="#f9f3f1" fill-rule="evenodd"/></g><g><path clip-rule="evenodd" d="m275.941 440.159h-39.882c-6.732 0-12.214 5.511-12.214 12.243v19.941 19.913c0 6.732 5.482 12.243 12.214 12.243h39.882c6.704 0 12.214-5.511 12.214-12.243v-19.913-19.941c0-6.732-5.51-12.243-12.214-12.243z" fill="#375e7d" fill-rule="evenodd"/></g><g><path clip-rule="evenodd" d="m440.154 452.402v19.941 19.913c0 6.732 5.511 12.243 12.243 12.243h39.853c6.732 0 12.243-5.511 12.243-12.243v-39.854c0-6.732-5.511-12.243-12.243-12.243h-19.912-19.941c-2.386 0-4.602.71-6.505 1.903-3.437 2.159-5.738 5.994-5.738 10.34z" fill="#375e7d" fill-rule="evenodd"/></g><g><path clip-rule="evenodd" d="m452.397 288.156h19.941 19.912c6.732 0 12.243-5.511 12.243-12.215v-39.883c0-6.732-5.511-12.215-12.243-12.215h-19.912-19.941c-6.732 0-12.243 5.482-12.243 12.215v39.883c0 6.704 5.511 12.215 12.243 12.215z" fill="#375e7d" fill-rule="evenodd"/></g><g><path clip-rule="evenodd" d="m352.807 166.463h-28.718c-2.216 0-4.261.824-5.823 2.187-1.818 1.619-2.983 4.005-2.983 6.619v28.719c0 4.858 3.948 8.834 8.806 8.834h28.718c1.392 0 2.727-.341 3.892-.909 2.897-1.449 4.914-4.46 4.914-7.925v-28.719c-.001-4.829-3.949-8.806-8.806-8.806z" fill="#375e7d" fill-rule="evenodd"/></g><g><path clip-rule="evenodd" d="m39.662 71.812h19.941c5.369 0 9.97-3.522 11.618-8.38.398-1.221.597-2.5.597-3.835v-19.941-19.941c0-6.704-5.482-12.215-12.214-12.215h-39.883c-6.704 0-12.214 5.511-12.214 12.215v39.883c0 6.732 5.511 12.215 12.214 12.215h19.941z" fill="#375e7d" fill-rule="evenodd"/></g><g><path clip-rule="evenodd" d="m472.338 71.812h19.912c6.732 0 12.243-5.482 12.243-12.215v-39.882c0-6.704-5.511-12.215-12.243-12.215h-39.853c-6.732 0-12.243 5.511-12.243 12.215v19.941 19.941c0 6.732 5.511 12.215 12.243 12.215z" fill="#375e7d" fill-rule="evenodd"/></g><g><path clip-rule="evenodd" d="m288.155 59.598v-19.942-19.941c0-6.704-5.511-12.215-12.214-12.215h-39.882c-6.732 0-12.214 5.511-12.214 12.215v19.941 19.941c0 6.732 5.482 12.215 12.214 12.215h39.882c6.704 0 12.214-5.482 12.214-12.214z" fill="#375e7d" fill-rule="evenodd"/></g><g><path clip-rule="evenodd" d="m59.603 440.159h-19.941-19.941c-6.704 0-12.214 5.511-12.214 12.243v39.854c0 6.732 5.511 12.243 12.214 12.243h39.882c6.732 0 12.214-5.511 12.214-12.243v-19.913-19.941c0-6.732-5.482-12.243-12.214-12.243z" fill="#375e7d" fill-rule="evenodd"/></g><g><path clip-rule="evenodd" d="m151.524 439.137-10.936-19.061c-.114-.085-49.511 48.177-53.687 52.268h31.502z" fill="#be694f" fill-rule="evenodd"/></g><g><path clip-rule="evenodd" d="m164.164 402.805 90.331-42.525 22.184-121.608-21.815 21.901-15.453 84.652-97.346 45.848 18.861 8.493z" fill="#dddaec" fill-rule="evenodd"/></g><g><path clip-rule="evenodd" d="m76.589 364.399 74.934 74.737c3.608 3.636 9.544 3.636 13.152 0l11.334-11.363c3.608-3.608 3.608-9.545-.028-13.181l-11.817-11.789-51.272-51.16-11.845-11.789c-3.608-3.636-9.544-3.608-13.18 0l-11.305 11.363c-3.608 3.638-3.608 9.546.027 13.182z" fill="#fec165" fill-rule="evenodd"/></g><g><path clip-rule="evenodd" d="m136.497 424.166 15.027 14.97c3.608 3.636 9.544 3.636 13.152 0l11.334-11.363c3.608-3.608 3.608-9.545-.028-13.181l-11.817-11.789-3.238-3.238c3.608 3.608 3.608 9.545 0 13.181l-11.305 11.334c-3.609 3.609-9.489 3.637-13.125.086z" fill="#fdb441" fill-rule="evenodd"/></g><g><path clip-rule="evenodd" d="m220.72 322.926c7.755-7.755 7.726-20.311-.028-28.066s-20.339-7.727-28.093.028c-7.726 7.755-7.726 20.339.028 28.094 7.783 7.727 20.338 7.727 28.093-.056z" fill="#375e7d" fill-rule="evenodd"/></g><g><path clip-rule="evenodd" d="m440.154 59.598v176.461c0-6.732 5.511-12.215 12.243-12.215h19.941v-152.032h-19.941c-6.732 0-12.243-5.482-12.243-12.214z" fill="#dddaec" fill-rule="evenodd"/></g><g><path clip-rule="evenodd" d="m472.338 288.156h-19.941c-6.732 0-12.243-5.511-12.243-12.215v132.715c2.159 10.88 4.062 22.015 5.738 33.406 1.903-1.193 4.119-1.903 6.505-1.903h19.941z" fill="#dddaec" fill-rule="evenodd"/></g><path d="m472.338 145.755c4.143 0 7.5-3.358 7.5-7.5v-58.943h12.412c10.887 0 19.743-8.844 19.743-19.715v-39.882c0-10.871-8.856-19.715-19.743-19.715h-39.853c-10.887 0-19.743 8.844-19.743 19.715v12.441h-136.999v-12.441c0-10.871-8.843-19.715-19.715-19.715h-39.88c-10.871 0-19.715 8.844-19.715 19.715v12.441h-137.028v-12.441c0-10.871-8.843-19.715-19.714-19.715h-39.882c-10.87 0-19.714 8.844-19.714 19.715v39.883c0 10.871 8.844 19.715 19.714 19.715h12.441v137.031h-12.441c-10.87 0-19.714 8.844-19.714 19.715v39.883c0 10.871 8.844 19.715 19.714 19.715h12.441v105.793.005 31.204h-12.441c-10.87 0-19.714 8.857-19.714 19.743v39.854c0 10.887 8.844 19.744 19.714 19.744h39.882c10.871 0 19.715-8.857 19.715-19.743v-12.413h137.027v12.413c0 10.886 8.844 19.743 19.715 19.743h39.881c10.871 0 19.715-8.857 19.715-19.743v-12.413h136.999v12.413c0 10.886 8.856 19.743 19.743 19.743h39.853c10.887 0 19.743-8.857 19.743-19.743v-39.854c0-10.886-8.856-19.743-19.743-19.743h-12.412v-137.004h12.412c10.887 0 19.743-8.844 19.743-19.715v-39.883c0-10.871-8.856-19.715-19.743-19.715h-12.412v-42.637c0-4.142-3.357-7.5-7.5-7.5s-7.5 3.358-7.5 7.5v42.637h-12.44c-10.887 0-19.743 8.844-19.743 19.715v39.883c0 10.871 8.856 19.715 19.743 19.715h12.44v137.003h-12.44c-.119 0-.233.016-.352.018-13.852-87.376-42.575-161.313-85.461-219.993 1.592-2.522 2.528-5.499 2.528-8.697v-28.719c0-8.991-7.314-16.306-16.306-16.306h-28.718c-1.572 0-3.088.236-4.528.653-62.418-58.106-143.18-92.703-240.245-102.908v-9.551h137.027v12.441c0 10.871 8.844 19.715 19.715 19.715h39.881c10.871 0 19.715-8.844 19.715-19.715v-12.441h136.999v12.441c0 10.871 8.856 19.715 19.743 19.715h12.44v58.942c.001 4.143 3.358 7.501 7.501 7.501zm-24.684 130.186v-39.883c0-2.6 2.128-4.715 4.743-4.715h39.853c2.615 0 4.743 2.115 4.743 4.715v39.883c0 2.556-2.172 4.715-4.743 4.715h-39.853c-2.571 0-4.743-2.159-4.743-4.715zm-432.647-216.343v-39.883c0-2.556 2.159-4.715 4.714-4.715h39.882c2.556 0 4.715 2.159 4.715 4.715v39.883c0 2.6-2.115 4.715-4.715 4.715h-39.882c-2.555-.001-4.714-2.16-4.714-4.715zm0 216.343v-39.883c0-2.556 2.159-4.715 4.714-4.715h39.882c2.6 0 4.715 2.115 4.715 4.715v39.883c0 2.556-2.159 4.715-4.715 4.715h-39.882c-2.555 0-4.714-2.159-4.714-4.715zm49.31 216.316c0 2.615-2.115 4.743-4.715 4.743h-39.881c-2.555 0-4.714-2.172-4.714-4.743v-39.854c0-2.571 2.159-4.743 4.714-4.743h39.882c2.6 0 4.715 2.128 4.715 4.743v39.854zm-4.714-59.598h-12.44v-28.118l29.443-29.534 64.311 64.143-25.627 25.693h-35.973v-12.441c0-10.886-8.843-19.743-19.714-19.743zm111.078-12.76c.703.706.715 1.882.02 2.578l-11.349 11.376c-.439.443-.973.51-1.252.51s-.812-.066-1.28-.537l-74.927-74.731c-.715-.714-.718-1.878-.015-2.587l11.271-11.328c.361-.359.842-.541 1.32-.541.467 0 .932.174 1.282.526zm109.974 72.358c0 2.571-2.159 4.743-4.715 4.743h-39.88c-2.6 0-4.715-2.128-4.715-4.743v-39.854c0-2.615 2.115-4.743 4.715-4.743h39.881c2.556 0 4.715 2.172 4.715 4.743v39.854zm15-27.413v-12.441c0-10.886-8.844-19.743-19.715-19.743h-39.88c-10.871 0-19.715 8.857-19.715 19.743v12.441h-79.869l16.306-16.349c1.692.562 3.478.869 5.317.869 4.511 0 8.736-1.756 11.886-4.931l11.328-11.356c6.55-6.55 6.537-17.221-.028-23.787-.003-.002-.005-.005-.008-.007l-4.254-4.243 80.665-37.974c2.191-1.031 3.749-3.057 4.184-5.439l22.171-121.527c.938-5.159-3.637-9.773-8.815-8.786l-121.406 22.511c-2.379.441-4.399 2.003-5.425 4.194l-13.408 28.634c-1.757 3.751-.14 8.216 3.611 9.973 3.751 1.758 8.218.14 9.973-3.611l11.773-25.143 94.024-17.433-34.427 34.55c-4.012-2.234-8.546-3.428-13.268-3.428-.013 0-.026 0-.039 0-7.306.01-14.174 2.861-19.35 8.037-10.637 10.676-10.619 28.032.058 38.71 5.337 5.297 12.328 7.944 19.313 7.944 7.023 0 14.041-2.675 19.367-8.02 8.82-8.821 10.321-22.227 4.525-32.636l34.426-34.549-17.166 94.094-82.078 38.639-43.823-43.708 12.235-26.153c1.756-3.752.137-8.216-3.615-9.972-3.751-1.753-8.216-.137-9.971 3.615l-9.941 21.248-4.246-4.235c-6.517-6.569-17.189-6.589-23.821-.007l-11.312 11.369c-4.618 4.654-5.935 11.362-3.987 17.208l-20.09 20.152v-87.639h12.44c10.871 0 19.715-8.844 19.715-19.715v-39.883c0-10.871-8.844-19.715-19.715-19.715h-12.44v-137.033h12.44c6.448 0 12.166-3.126 15.765-7.927 94.468 9.509 172.911 42.654 233.314 98.591-.573 1.662-.899 3.438-.899 5.292v28.719c0 9.007 7.314 16.334 16.306 16.334h28.718c.25 0 .492-.026.739-.037 42.64 57.833 70.986 131.403 84.307 218.813-3.217 3.514-5.199 8.176-5.199 13.305v12.441h-136.996zm-80.267-164.681c4.821 4.821 4.834 12.654.02 17.469-4.805 4.821-12.654 4.834-17.477.047-4.82-4.82-4.829-12.669-.028-17.487 2.338-2.339 5.447-3.629 8.753-3.634h.019c3.294 0 6.387 1.28 8.713 3.605zm281.605 152.239v39.854c0 2.571-2.172 4.743-4.743 4.743h-39.853c-2.571 0-4.743-2.172-4.743-4.743v-39.854c0-1.601.843-3.046 2.1-3.91.02-.012.039-.024.059-.036.75-.5 1.639-.798 2.585-.798h39.853c2.57.001 4.742 2.173 4.742 4.744zm-142.881-277.133v28.719c0 .503-.292.947-.707 1.173-.036.017-.07.039-.106.057-.153.066-.32.104-.493.104h-28.718c-.708 0-1.306-.611-1.306-1.334v-28.719c0-.695.61-1.306 1.306-1.306h28.718c.696 0 1.306.61 1.306 1.306zm-73.457-115.671c0 2.556-2.159 4.715-4.715 4.715h-39.88c-2.6 0-4.715-2.115-4.715-4.715v-39.883c0-2.556 2.159-4.715 4.715-4.715h39.881c2.556 0 4.715 2.159 4.715 4.715v39.883zm166.999 0v-39.883c0-2.556 2.172-4.715 4.743-4.715h39.853c2.571 0 4.743 2.159 4.743 4.715v39.883c0 2.6-2.128 4.715-4.743 4.715h-39.853c-2.615-.001-4.743-2.116-4.743-4.715z"/></g></svg>