<svg id="Capa_1" enable-background="new 0 0 510 510" height="40" viewBox="0 0 510 510" width="40" xmlns="http://www.w3.org/2000/svg" xmlns:xlink="http://www.w3.org/1999/xlink"><linearGradient id="SVGID_1_" gradientUnits="userSpaceOnUse" x1="47.998" x2="207.93" y1="262.966" y2="262.966"><stop offset="0" stop-color="#fd4755"/><stop offset="1" stop-color="#d2024e"/></linearGradient><linearGradient id="SVGID_2_" gradientUnits="userSpaceOnUse" x1="302.07" x2="462.003" y1="247.034" y2="247.034"><stop offset="0" stop-color="#a2e62e"/><stop offset=".1231" stop-color="#97de30"/><stop offset=".3395" stop-color="#79cb36"/><stop offset=".6234" stop-color="#4aab3f"/><stop offset=".9609" stop-color="#09804c"/><stop offset="1" stop-color="#017b4e"/></linearGradient><linearGradient id="lg1"><stop offset="0" stop-color="#c00148" stop-opacity="0"/><stop offset="1" stop-color="#6d3326"/></linearGradient><linearGradient id="SVGID_3_" gradientUnits="userSpaceOnUse" x1="156.147" x2="143.647" xlink:href="#lg1" y1="124.892" y2="139.142"/><linearGradient id="SVGID_4_" gradientUnits="userSpaceOnUse" x1="116.031" x2="103.531" xlink:href="#lg1" y1="89.703" y2="103.953"/><linearGradient id="lg2"><stop offset="0" stop-color="#017b4e" stop-opacity="0"/><stop offset="1" stop-color="#026841"/></linearGradient><linearGradient id="SVGID_5_" gradientUnits="userSpaceOnUse" x1="355.961" x2="385.837" xlink:href="#lg2" y1="381.628" y2="351.752"/><linearGradient id="SVGID_6_" gradientUnits="userSpaceOnUse" x1="395.083" x2="424.959" xlink:href="#lg2" y1="420.75" y2="390.874"/><linearGradient id="SVGID_7_" gradientUnits="userSpaceOnUse" x1="160.535" x2="391.355" y1="160.536" y2="391.356"><stop offset="0" stop-color="#fee97d"/><stop offset="1" stop-color="#fac600"/></linearGradient><linearGradient id="lg3"><stop offset="0" stop-color="#fac600" stop-opacity="0"/><stop offset=".6899" stop-color="#d68c3d" stop-opacity=".69"/><stop offset="1" stop-color="#c5715a"/></linearGradient><linearGradient id="SVGID_8_" gradientUnits="userSpaceOnUse" x1="352.003" x2="117.794" xlink:href="#lg3" y1="255.88" y2="255.88"/><linearGradient id="SVGID_9_" gradientUnits="userSpaceOnUse" x1="273.211" x2="273.211" xlink:href="#lg3" y1="401.104" y2="500.742"/><linearGradient id="SVGID_10_" gradientUnits="userSpaceOnUse" x1="367.333" x2="290.589" xlink:href="#lg2" y1="103.905" y2="103.905"/><linearGradient id="SVGID_11_" gradientUnits="userSpaceOnUse" x1="160.667" x2="209.702" xlink:href="#lg1" y1="412.764" y2="412.764"/><g><g><path d="m207.93 420.51v36.12c-36.44-8.44-71.03-26.84-99.37-55.19-80.75-80.75-80.75-212.13 0-292.88.1-.11.21-.21.32-.32l-6.46-6.46c-7.41-7.41-3.64-20.08 6.61-22.22l47.65-9.97c9.3-1.95 17.54 6.29 15.59 15.6l-9.97 47.64c-2.14 10.25-14.81 14.02-22.22 6.62l-6.45-6.46c-.11.11-.22.21-.32.32-67.11 67.1-67.11 176.28 0 243.38 21.48 21.48 47.27 36.09 74.62 43.82z" fill="url(#SVGID_1_)"/><path d="m407.58 408.22c7.41 7.41 3.64 20.08-6.61 22.22l-47.65 9.97c-9.3 1.95-17.54-6.29-15.59-15.6l9.97-47.64c2.14-10.25 14.81-14.02 22.22-6.62l6.45 6.46c.11-.11.22-.21.32-.32 67.11-67.1 67.11-176.28 0-243.38-21.48-21.48-47.27-36.09-74.62-43.82v-36.12c36.44 8.44 71.03 26.84 99.37 55.19 80.75 80.75 80.75 212.13 0 292.88-.1.11-.21.21-.32.32z" fill="url(#SVGID_2_)"/></g><g><path d="m162.3 132.83 7.236-34.577-35.906 34.737 6.45 6.46c7.41 7.4 20.08 3.63 22.22-6.62z" fill="url(#SVGID_3_)"/><path d="m109.03 79.56c-10.25 2.14-14.02 14.81-6.61 22.22l6.46 6.46 43.432-37.736z" fill="url(#SVGID_4_)"/></g><g><path d="m369.92 370.55c-7.41-7.4-20.08-3.63-22.22 6.62l-7.236 34.577 35.906-34.737z" fill="url(#SVGID_5_)"/><path d="m407.58 408.22-6.46-6.46-43.432 37.736 43.281-9.056c10.251-2.14 14.021-14.81 6.611-22.22z" fill="url(#SVGID_6_)"/></g><g><path d="m392.67 219.524h-68.887c-11.993 0-21.716-9.723-21.716-21.716v-176.052c0-21.538-27.976-29.938-39.841-11.962l-163.022 247.003c-9.529 14.438.825 33.678 18.124 33.678h68.887c11.993 0 21.716 9.723 21.716 21.716v176.052c0 21.538 27.976 29.938 39.841 11.962l163.022-247.004c9.53-14.436-.825-33.677-18.124-33.677z" fill="url(#SVGID_7_)"/><path d="m410.798 253.197-163.025 247.007c-6.257 9.487-17.009 11.626-25.769 8.37l68.371-211.365c5.776-17.855-7.537-36.154-26.303-36.154h-18.56c-18.645 0-31.943-18.079-26.391-35.878l69.694-223.414c7.441 3.095 13.255 10.187 13.255 19.996v176.051c0 11.99 9.716 21.719 21.719 21.719h68.884c17.291 0 27.652 19.229 18.125 33.668z" fill="url(#SVGID_8_)"/><path d="m207.932 362.755v125.49c0 21.538 27.976 29.938 39.841 11.962l90.718-137.452z" fill="url(#SVGID_9_)"/></g><path d="m394.667 154.441v-52.349c-26.999-24.694-59.01-40.943-92.597-48.722v36.12c27.35 7.73 53.14 22.34 74.62 43.82 6.656 6.655 12.641 13.73 17.977 21.131z" fill="url(#SVGID_10_)"/><path d="m126 368.899v48.126c24.599 19.62 52.666 32.827 81.93 39.605v-36.12c-27.35-7.73-53.14-22.34-74.62-43.82-2.536-2.536-4.965-5.139-7.31-7.791z" fill="url(#SVGID_11_)"/></g></svg>