<svg id="filled_outline" height="512" viewBox="0 0 512 512" width="512" xmlns="http://www.w3.org/2000/svg" data-name="filled outline"><path d="m136 160h24v24a16 16 0 0 1 -16 16h-40v16h-24v-24a16 16 0 0 1 16-16h40z" fill="#cad8ed"/><path d="m24 264h192v224h-192z" fill="#6d7eb3"/><path d="m64 376h112v32h-112z" fill="#445496"/><path d="m16 24h480v72h-480z" fill="#6d7eb3"/><path d="m56 296h72v48h-72z" fill="#5ebd92"/><g fill="#56679c"><circle cx="64" cy="392" r="16"/><circle cx="176" cy="392" r="16"/><circle cx="120" cy="392" r="16"/></g><path d="m216 328h248a24 24 0 0 1 24 24 24 24 0 0 1 -24 24h-248z" fill="#8796c4"/><path d="m248 376 16 24h48l16-24z" fill="#6d7eb3"/><path d="m248 488 16-24h48l16 24z" fill="#6d7eb3"/><path d="m264 400h48v64h-48z" fill="#56679c"/><path d="m248 256h80v72h-80z" fill="#f7c04a"/><path d="m360 256h80v72h-80z" fill="#f7c04a"/><path d="m312 104-8 56h-32l-8-56z" fill="#cad8ed"/><path d="m80 216h24v48h-24z" fill="#a6bce3"/><path d="m136 96h24v64h-24z" fill="#a6bce3"/><path d="m384 376 16 24h48l16-24z" fill="#6d7eb3"/><path d="m384 488 16-24h48l16 24z" fill="#6d7eb3"/><path d="m400 400h48v64h-48z" fill="#56679c"/><path d="m312 104 40-32v-24h-128v24l40 32z" fill="#e4e9f2"/><path d="m400 153.78v22.22h-112v-24l32-16z" fill="#cad8ed"/><circle cx="288" cy="160" fill="#e4e9f2" r="16"/><path d="m408 156 24 36v32h-16l-8-24h-16l-8 24h-16v-32l24-36z" fill="#cad8ed"/><circle cx="400" cy="160" fill="#e4e9f2" r="16"/><path d="m56 352h72a7.99977 7.99977 0 0 0 8-8v-48a7.99977 7.99977 0 0 0 -8-8h-72a7.99977 7.99977 0 0 0 -8 8v48a7.99977 7.99977 0 0 0 8 8zm8-48h56v32h-56z"/><path d="m152 296h32v16h-32z"/><path d="m152 328h40v16h-40z"/><path d="m64 416h112a24 24 0 0 0 0-48h-112a24 24 0 0 0 0 48zm64-24a8 8 0 1 1 -8-8 8.00917 8.00917 0 0 1 8 8zm14.6239-8h10.7522a23.94217 23.94217 0 0 0 0 16h-10.7522a23.94217 23.94217 0 0 0 0-16zm-45.2478 16h-10.7522a23.94217 23.94217 0 0 0 0-16h10.7522a23.94217 23.94217 0 0 0 0 16zm86.6239-8a8 8 0 1 1 -8-8 8.00917 8.00917 0 0 1 8 8zm-120-8a8 8 0 1 1 -8 8 8.00917 8.00917 0 0 1 8-8z"/><path d="m48 432h16v32h-16z"/><path d="m80 432h16v32h-16z"/><path d="m112 432h16v32h-16z"/><path d="m144 432h16v32h-16z"/><path d="m176 432h16v32h-16z"/><path d="m16 32h60.68652l-56 56h-4.68652v16h112v64h-32a24.0275 24.0275 0 0 0 -24 24v64h-48a7.99977 7.99977 0 0 0 -8 8v224a7.99977 7.99977 0 0 0 8 8h192a7.99977 7.99977 0 0 0 8-8v-104h19.71875l12.28125 18.42188v59.15624l-14.65625 21.98438a8 8 0 0 0 6.65625 12.4375h80a8 8 0 0 0 6.65625-12.4375l-14.65625-21.98438v-59.15624l12.28125-18.42188h47.4375l12.28125 18.42188v59.15624l-14.65625 21.98438a8 8 0 0 0 6.65625 12.4375h80a8 8 0 0 0 6.65625-12.4375l-14.65625-21.98438v-59.15624l12.496-18.744a31.99747 31.99747 0 0 0 -4.496-63.67788h-16v-64a7.99977 7.99977 0 0 0 -8-8h-80a7.99977 7.99977 0 0 0 -8 8v64h-16v-64a7.99977 7.99977 0 0 0 -8-8h-80a7.99977 7.99977 0 0 0 -8 8v64h-16v-56a7.99977 7.99977 0 0 0 -8-8h-104v-48h32a24.0275 24.0275 0 0 0 24-24v-80h83.1936l5.33509 4.26807 7.48889 52.42193a24.02326 24.02326 0 0 0 23.98242 23.31h75.71875l-2.375 3.5625a7.996 7.996 0 0 0 -1.34375 4.4375v32a7.99977 7.99977 0 0 0 8 8h16a8.00011 8.00011 0 0 0 7.58936-5.47021l6.17675-18.52979h4.46778l6.17675 18.52979a8.00011 8.00011 0 0 0 7.58936 5.47021h16a7.99977 7.99977 0 0 0 8-8v-32a7.996 7.996 0 0 0 -1.34375-4.4375l-15.14725-22.72083a23.98658 23.98658 0 0 0 -39.41394-22.79351l-62.35974-13.85773a7.99782 7.99782 0 0 0 -5.19617.602l2.93213-20.52435 5.33512-4.26808h171.1936v-16h-60.68652l56-56h4.68652v-16h-480zm288 424h-8v-32h-16v32h-8v-48h32zm-41.05176 24 5.333-8h39.4375l5.333 8zm44.77051-88h-39.4375l-5.33325-8h50.104zm108.28125 32v32h-8v-48h32v48h-8v-32zm-11.71875-32-5.33325-8h50.104l-5.33325 8zm-5.333 88 5.333-8h39.4375l5.333 8zm-30.94825-216h24v16h16v-16h24v56h-64zm-112 0h24v16h16v-16h24v56h-64zm208 72a16 16 0 0 1 0 32h-240v-32zm-190.77612-224h29.55224l-3.8092 26.66315a23.91261 23.91261 0 0 0 -21.934.00006zm-6.41773-16-34.80615-27.84521v-12.15479h112v12.15479l-34.80615 27.84521zm141.19385-54.03729v46.03729h-51.15259zm-48 21.67462v-15.63733a7.99977 7.99977 0 0 0 -8-8h-8v-8h51.15259zm-32-23.63733h-64v-8h64zm-101.73621 0h-2.26379a7.99977 7.99977 0 0 0 -8 8v1.23712l-32 28.80011v-46.03723h51.15259zm-58.26379 48h-51.15259l51.15259-46.03729zm-64-9.96271v-46.03729h51.15259zm-16-34.72381v44.68652h-44.68652zm120 436.68652h-176v-208h176zm-120-224v-32h8v32zm16-64a7.99977 7.99977 0 0 0 -8 8v8h-8v-16a8.00917 8.00917 0 0 1 8-8h16v8zm40 0h-16v-8h8a7.99977 7.99977 0 0 0 8-8v-8h8v16a8.00917 8.00917 0 0 1 -8 8zm8-40h-8v-48h8zm44.84741-64 19.15259-17.23743v1.23743a7.99951 7.99951 0 0 0 3.00244 6.24707l12.19116 9.75293zm83.15259 72a8 8 0 1 1 8 8 8.00917 8.00917 0 0 1 -8-8zm144 56h-2.23389l-6.17675-18.52979a8.00011 8.00011 0 0 0 -7.58936-5.47021h-16a8.00011 8.00011 0 0 0 -7.58936 5.47021l-6.17675 18.52979h-2.23389v-21.57764l9.97583-14.96417a23.92277 23.92277 0 0 0 28.04834 0l9.97583 14.96417zm-24-64a8 8 0 1 1 -8 8 8.00917 8.00917 0 0 1 8-8zm-78.96289-7.57422 55.19641 12.26575a23.88665 23.88665 0 0 0 .25745 8.15014l-2.10547 3.15833h-63.7616a23.927 23.927 0 0 0 -.80017-17.96771zm102.96289-67.73926v-44.68652h44.68652z"/></svg>