<svg id="flat" height="512" viewBox="0 0 512 512" width="512" xmlns="http://www.w3.org/2000/svg"><path d="m472 304v152h-96v-328h-56l-24-48h144v184l6.4 8z" fill="#ffc431"/><path d="m304 264v8h-57.28a32.016 32.016 0 0 1 -24.3-11.17l-19.64-22.92009-18.78-21.90991v56h-104v-70.06006a33.94578 33.94578 0 0 1 33.94-33.93994h62.41a32.01551 32.01551 0 0 1 25.26 12.35l28.71 36.91 17.68 22.74h32a24.00619 24.00619 0 0 1 24 24z" fill="#ffceb6"/><path d="m230.32 217.26-27.54 20.6499-18.78-21.9099v56h-104v-70.06006a33.94578 33.94578 0 0 1 33.94-33.93994h62.41a32.01551 32.01551 0 0 1 25.26 12.35z" fill="#548aff"/><path d="m160 144v24l-2.67 8-2.8 8.40991a11.102 11.102 0 0 1 -21.06006 0l-5.46994-16.40991v-24z" fill="#ffceb6"/><path d="m160 144v24l-2.67 8h-5.33a15.99559 15.99559 0 0 1 -16-16v-16z" fill="#ffbfa1"/><path d="m160 136h-32v16a16 16 0 0 0 16 16 16 16 0 0 0 16-16z" fill="#ffceb6"/><path d="m216 24h136v56h-136z" fill="#ffd873"/><path d="m288 112h-64l-8-32h80z" fill="#ffc431"/><path d="m288 152-8 16h-48l-8-16v-40h64z" fill="#ffb401"/><path d="m248 168h16v48h-16z" fill="#d1e4ff"/><path d="m446.4 272h-70.4v-16h64v8z" fill="#ffb401"/><path d="m440 456-24-40h-88l-24 40z" fill="#ffb401"/><path d="m248 456h224v32h-224z" fill="#ffd873"/><rect fill="#4976f2" height="28.284" rx="8" transform="matrix(.707 -.707 .707 .707 -140.073 145.833)" width="16" x="98" y="227.858"/><rect fill="#4976f2" height="22.627" rx="8" transform="matrix(.707 -.707 .707 .707 -112.902 159.431)" width="16" x="128" y="204.686"/><path d="m176 456 32 24v8h-64v-24z" fill="#e0edff"/><path d="m40 464 40-8 24 24v8h-64z" fill="#e0edff"/><path d="m144 464 32-8v-184h-96l-40 192 40-8 48-136z" fill="#4976f2"/><path d="m116 252 28-28 16 16h32a24 24 0 0 1 24 24v8h-66.74517a32 32 0 0 1 -22.62741-9.37258z" fill="#ffceb6"/><path d="m376 328h-168l-56-32v-24h224z" fill="#ffb401"/><path d="m376 360h-72l-32-32h104z" fill="#ffa100"/><path d="m376 232h-24l-24 40h48z" fill="#ffa100"/><path d="m440 80v10l-64 48v-10h-13.33l63.99-48z" fill="#ffb401"/><path d="m144 112a16 16 0 0 1 16 16v8a0 0 0 0 1 0 0h-32a0 0 0 0 1 0 0v-8a16 16 0 0 1 16-16z" fill="#548aff"/><path d="m128 128h56v16h-56z" fill="#7dafff"/></svg>